<svg width="45" height="44" viewBox="0 0 45 44" fill="none" xmlns="http://www.w3.org/2000/svg">
<path fill-rule="evenodd" clip-rule="evenodd" d="M14.2594 34.3626C12.9413 34.3626 11.8707 35.4095 11.8707 36.6983C11.8707 37.9871 12.9413 39.0358 14.2594 39.0358C15.5757 39.0358 16.6463 37.9871 16.6463 36.6983C16.6463 35.4095 15.5757 34.3626 14.2594 34.3626Z" fill="#F3EFEE"/>
<path fill-rule="evenodd" clip-rule="evenodd" d="M34.6354 34.3626C33.3173 34.3626 32.2467 35.4095 32.2467 36.6983C32.2467 37.9871 33.3173 39.0358 34.6354 39.0358C35.9535 39.0358 37.0242 37.9871 37.0242 36.6983C37.0242 35.4095 35.9535 34.3626 34.6354 34.3626Z" fill="#F3EFEE"/>
<path fill-rule="evenodd" clip-rule="evenodd" d="M25.4547 20.4893H33.2734V17.7393H25.4547V20.4893ZM11.5234 10.5709L10.9609 4.96094H3.64844V7.71094H8.41094L10.8109 30.9943H38.5984L41.3547 10.5709H11.5234Z" fill="#F3EFEE"/>
</svg>
