<svg width="48" height="48" viewBox="0 0 48 48" fill="none" xmlns="http://www.w3.org/2000/svg">
<path d="M24 19.6367V28.9313H36.9163C36.3492 31.9204 34.6471 34.4514 32.0944 36.1532L39.8835 42.1968C44.4217 38.0079 47.0399 31.8551 47.0399 24.546C47.0399 22.8443 46.8872 21.2077 46.6035 19.637L24 19.6367Z" fill="white"/>
<path d="M10.5531 28.5664L8.79641 29.9112L2.57812 34.7547C6.52721 42.5874 14.6212 47.9984 24.0029 47.9984C30.4827 47.9984 35.9154 45.8602 39.8864 42.1948L32.0973 36.1511C29.9591 37.5911 27.2319 38.4639 24.0029 38.4639C17.7629 38.4639 12.4613 34.253 10.5629 28.5803L10.5531 28.5664Z" fill="white"/>
<path d="M2.57436 13.2422C0.938084 16.4711 0 20.1148 0 23.9984C0 27.882 0.938084 31.5257 2.57436 34.7546C2.57436 34.7763 10.5599 28.5583 10.5599 28.5583C10.08 27.1183 9.79624 25.5911 9.79624 23.9982C9.79624 22.4052 10.08 20.878 10.5599 19.438L2.57436 13.2422Z" fill="white"/>
<path d="M24.0034 9.55636C27.538 9.55636 30.6797 10.7781 33.1888 13.1345L40.0615 6.2619C35.8942 2.37833 30.4835 0 24.0034 0C14.6216 0 6.52721 5.38908 2.57812 13.2437L10.5635 19.44C12.4615 13.7672 17.7634 9.55636 24.0034 9.55636Z" fill="white"/>
</svg>
