<svg width="181" height="45" viewBox="0 0 181 45" fill="none" xmlns="http://www.w3.org/2000/svg">
<path d="M28.0293 37.3749C27.8373 37.0549 27.1333 35.4549 26.9413 35.1349C26.6853 34.5589 26.7493 33.5349 25.8533 33.5349C24.5093 33.5349 23.0373 34.3669 21.8213 34.6869C19.7733 35.1989 16.3173 35.5829 14.2053 35.5829C9.91725 35.5829 6.07725 34.8149 2.74925 31.9989C0.57325 30.1429 -0.00274992 27.6469 -0.00274992 24.7669C-0.00274992 22.5269 0.95725 19.9669 1.72525 17.9829C1.85325 17.6629 2.49325 16.6389 2.68525 15.9989C7.22925 8.19094 13.7573 4.03094 22.8453 4.03094C23.9973 4.03094 25.1493 4.03094 26.3013 4.15894C26.4933 4.15894 27.1973 4.35094 27.3893 4.47894C29.8853 5.37494 32.1253 5.05494 32.1253 8.25494C32.1253 8.38294 32.0613 8.89494 32.0613 8.95894C31.6772 9.40694 30.6533 9.98294 30.1413 9.98294C29.3733 9.98294 28.9893 9.66294 28.1573 9.59894C27.1333 9.59894 25.5333 9.47094 24.3813 9.47094C24.0613 9.47094 24.0613 9.59894 23.8693 9.59894C23.6773 9.59894 23.5493 9.59894 23.3573 9.47094C23.1653 9.47094 22.2053 9.40694 22.0133 9.40694C19.7733 9.40694 17.7253 10.1749 15.5493 10.8149C10.1733 12.6709 6.26925 17.6629 6.26925 23.5509C6.26925 25.5989 10.5573 27.9029 12.2213 28.2869C13.3733 28.6069 13.8213 28.4149 15.2933 28.4149C17.7253 28.4149 20.0293 28.0309 22.4613 27.5189C23.2293 27.3909 24.2533 27.2629 25.0853 26.8789C25.0853 26.7509 25.0853 26.0469 25.0853 25.8549C25.0853 24.8309 25.0853 24.3829 24.8933 23.2949C24.8933 22.8469 24.7013 21.7589 24.6373 21.7589L23.9973 21.2469C22.7173 21.3109 21.8213 20.9909 20.7973 20.9909H20.7333C19.9013 21.0549 17.8533 21.2469 17.7253 21.2469C16.8293 21.5029 16.0613 21.8869 15.0373 21.8869C14.4613 21.8869 13.2453 21.7589 13.2453 20.9909C13.2453 20.2229 13.5013 19.9669 14.0133 19.4549C15.5493 17.6629 17.2133 17.9189 19.4533 17.5989C21.4373 17.2149 23.4213 16.5749 25.2773 16.5749C25.5333 16.5749 26.1733 16.6389 26.3013 16.6389C27.3253 17.1509 27.3893 17.5349 28.1573 18.3669C28.2853 18.4309 28.8613 18.8789 28.9893 18.9429C30.8453 20.6069 31.2293 23.6149 31.0373 25.9829C31.4213 26.3669 32.2533 25.8549 32.2533 26.8149V26.8789C31.6772 27.7109 31.4213 28.2229 31.4213 29.2469C31.4213 31.8069 33.2133 34.0469 33.2133 36.6069C33.2133 38.2069 33.0853 39.3589 31.2293 39.3589C29.3733 39.3589 29.1173 37.5669 28.0293 37.3749ZM62.6333 43.1349C62.6333 42.9429 62.6333 42.4949 63.0813 42.7509C61.6093 42.7509 61.2893 42.2389 60.2653 41.5349H60.9693C60.5213 40.6389 58.4093 40.6389 58.1533 39.9349C57.9613 39.3589 58.1533 39.1669 57.4493 39.1669H57.3213L57.0653 39.2949C56.9373 39.2949 56.3613 37.8869 56.4253 37.7589C54.8893 37.6309 54.8253 37.1189 54.0573 36.0309C54.0573 36.0309 54.0573 36.0309 53.9933 36.0309H53.8653C53.8653 36.0309 53.8013 36.2869 53.8013 36.3509L53.2893 35.3909C53.3533 35.3909 53.4173 35.3909 53.4173 35.3909C53.9933 35.3909 54.3773 35.8389 54.8893 35.8389L55.1453 35.7109C55.2733 35.7109 55.6573 35.7109 55.7853 35.7109C55.4653 35.3269 54.6333 34.5589 54.1213 34.5589C53.8653 34.5589 54.0573 34.9429 53.8013 34.9429C53.6093 34.9429 53.4173 34.8789 53.2893 34.6869H53.8013C53.4173 34.1749 52.6493 33.1509 51.8813 33.3429L52.0733 33.2149C51.6893 33.1509 50.7933 32.7669 50.7933 32.2549V32.1269C50.9853 32.2549 51.8173 32.7029 52.0733 32.7669H52.2013H52.3293C51.6253 31.7429 49.7693 30.7189 48.6173 30.4629C48.5533 30.3989 48.4893 30.2709 48.4893 30.2709L48.6173 30.0789C47.9773 29.4389 47.2093 28.7349 46.4413 28.2229C45.9293 27.9029 44.7773 27.1349 44.7133 27.1349H44.3933V31.3589L44.2653 31.4869C44.2653 31.4869 44.3933 31.6149 44.3933 31.6789C44.3933 31.7429 44.3933 31.8069 44.3933 31.8069C44.3933 31.9989 44.5853 33.5349 44.5853 33.7269C44.5853 33.9189 44.4573 34.6229 44.3933 34.8149C44.3933 34.8149 44.0093 35.3269 43.9453 35.3909C43.9453 35.4549 44.0093 35.9669 43.9453 36.0309C43.8173 37.0549 43.2413 37.6949 42.2173 37.8869C42.2173 37.8869 42.2173 37.8869 42.2173 37.8229V37.7589C42.2812 37.6309 42.6013 37.1189 42.6013 37.0549V36.9269C42.4093 36.8629 42.0253 36.3509 41.9613 36.3509C41.8973 36.3509 41.7053 36.4149 41.6413 36.4149C41.6413 36.7989 41.7693 37.1189 41.7693 37.4389C41.7693 37.4389 41.7693 37.5669 41.7693 37.6309L41.3213 37.2469V36.0309C41.3213 35.9029 40.8093 35.5829 40.6813 35.5829C40.6173 35.5829 40.3613 35.6469 40.3613 35.7109L39.9133 35.0709C39.9133 35.0709 39.9133 34.5589 39.9133 34.4309C39.9133 33.9829 39.8493 33.3429 40.0413 32.9589C40.1693 33.2149 40.2973 33.3429 40.6173 33.3429C41.4493 33.3429 41.7693 31.6149 41.7693 31.0389C41.7693 30.7829 41.6413 30.5269 41.4493 30.4629L41.7053 30.2709V28.4149L41.9613 29.6949C42.0253 29.6309 42.4093 27.8389 42.6013 27.4549C42.6013 27.3909 42.7292 27.0069 42.7292 27.0069C42.7292 25.0869 42.3453 23.0389 42.3453 21.1189C42.3453 21.0549 42.3453 20.9269 42.3453 20.9269C42.3453 20.8629 42.6013 20.6709 42.6013 20.6069L42.3453 20.4789C42.0253 19.3269 42.0893 18.0469 41.4493 17.0229V19.1989H40.6813C41.0653 19.0069 41.1293 18.5589 41.1293 18.1749V18.1109C41.0653 17.6629 40.8093 15.7429 40.7453 15.3589V15.7429C40.7453 15.6789 40.6813 15.2309 40.6813 15.1029C40.7453 14.9109 41.0653 14.9749 41.1293 14.9749C41.1933 14.9109 41.3213 14.3349 41.3213 14.2069C41.3213 13.9509 41.3213 12.8629 40.8093 12.7989C41.1293 12.7989 41.3213 12.5429 41.3213 12.2869C41.3213 12.0309 41.1933 11.5829 40.8733 11.5829C40.8733 11.5189 40.8093 11.4549 40.8093 11.4549C40.8093 11.3269 40.6813 10.8149 40.6813 10.8149C40.6813 10.7509 40.8093 10.3669 40.8093 10.3029C40.8093 9.72694 40.8093 8.57494 39.9133 8.76694L40.5533 8.19094H40.3613C40.2973 8.19094 37.8653 8.70294 37.4173 8.95894C37.0333 9.08694 37.0333 9.40694 36.6493 9.40694C36.2013 9.40694 36.0093 8.70294 35.5613 8.95894C35.4973 8.63894 35.4333 7.35894 35.4333 7.03894C35.4333 7.03894 35.4333 6.97494 35.4333 6.91094C35.4333 6.91094 35.4973 6.71894 35.5613 6.71894C36.2013 6.33494 37.5453 5.37494 38.5052 5.18294C38.6973 5.11894 40.2973 5.11894 40.5533 4.67094C40.8733 4.15894 40.8093 3.64693 41.8973 3.64693C41.9613 3.64693 42.0893 3.64693 42.0893 3.64693C42.2173 3.64693 42.8573 3.77494 42.9853 3.83894L42.8573 3.90294C45.2253 3.83894 47.2093 4.09494 49.5133 4.41494C50.6653 4.54294 51.2413 5.37494 52.3293 5.63094C52.8413 5.82294 53.6093 5.82294 54.0573 5.95094C54.1213 5.95094 54.2493 6.14294 54.2493 6.14294C55.7853 6.91094 57.7053 7.16694 59.0493 8.31894L59.2413 7.93494C59.7533 9.02294 60.9693 9.79094 61.7373 10.6229C61.7373 10.6229 61.8013 10.8789 61.8013 11.0069C61.8653 11.0069 61.9933 11.3909 62.0573 11.4549C62.2493 11.4549 62.2493 11.2629 62.4413 11.2629C62.4413 11.5829 63.1453 12.6709 63.2733 12.7989C63.2733 12.8629 63.4013 13.2469 63.4013 13.3109C63.7853 14.7189 64.4893 16.1269 64.4893 17.7269V17.7909C64.1693 19.9669 64.4893 22.1429 62.9533 23.8709C62.4413 24.0629 62.2493 24.7669 62.0573 25.1509C61.9293 25.3429 61.5453 25.3429 61.4173 25.4069V24.9589L62.1853 24.1909C62.0573 24.1909 61.6093 24.1269 61.5453 24.1269C61.0333 24.1269 60.7773 24.5749 60.3933 24.5749L60.2653 24.5109L60.2013 24.3189C60.5853 24.3189 60.5853 23.9349 60.5853 23.6149C59.8173 23.6149 59.4973 24.0629 58.7933 24.0629C58.5373 24.0629 58.5373 23.8709 58.3453 23.8709H58.2813C58.2173 23.8709 58.1533 23.9989 58.1533 24.0629L58.2813 24.1909C58.2173 24.1909 57.7053 24.3189 57.7053 24.3189H57.5773C57.5133 24.3189 57.5133 24.3189 57.5133 24.3189C57.4493 24.3189 56.9373 24.0629 56.9373 24.0629H53.8013L53.2893 23.8709L53.4173 23.6149H54.6333V23.2949H52.6493C52.7773 23.0389 53.3533 22.9749 53.4173 22.9109L53.2893 22.7829H50.7933V22.7189C50.2812 22.7189 50.2812 23.0389 49.5133 23.0389V22.7829H48.6813C48.6813 22.9749 48.4893 22.9749 48.7453 23.1029C48.7453 23.1029 48.4893 23.2309 48.4893 23.2949C48.4893 24.0629 50.0253 24.6389 49.7693 25.4069C50.2812 25.8549 51.1772 26.3029 51.5613 26.8149L51.3053 27.0069C51.3693 27.3269 51.4973 27.5829 51.7533 27.7749C53.0333 28.7989 54.3773 29.7589 55.6573 30.7189C56.0413 31.0389 56.4893 32.1269 57.1293 32.1269C57.3213 32.1269 57.3213 31.9349 57.5133 31.9349C57.6413 31.9349 59.4333 33.2149 59.6893 33.3429C60.5213 33.9189 61.6093 34.3029 62.1853 35.0709C62.2493 35.1989 62.4413 35.3909 62.5053 35.3909C62.5693 35.3909 62.8253 35.3269 62.8253 35.2629V34.3029C63.0813 34.8149 63.2733 35.1989 63.4013 35.7109H63.5933C63.5933 35.6469 63.5933 35.4549 63.5933 35.3909C63.5933 35.1989 63.4653 34.1749 63.4013 33.9829C63.4653 33.9829 63.4653 33.9829 63.4653 33.9829C63.5293 33.9829 63.5933 33.9829 63.5933 33.9829C63.5933 34.0469 63.8493 34.1109 63.8493 34.1749C64.1053 34.7509 64.2333 35.0069 64.2333 35.5829C64.2333 35.6469 64.2973 36.0309 64.1053 36.0309C64.2973 36.3509 64.3613 37.1829 64.6813 37.1829V36.9269H64.8733C64.8733 36.9269 65.2573 39.5509 65.3213 39.6149C65.3213 39.6789 65.5773 39.9989 65.6413 40.1269C65.6413 40.3829 65.3853 40.5109 65.3853 40.7669C65.3853 41.3429 66.0253 42.4309 66.2173 42.8789C66.1533 42.9429 66.1533 43.1349 66.0893 43.1989C66.0893 43.1989 66.0253 43.1989 65.9613 43.1989H65.8973C65.8973 43.1349 65.7053 42.7509 65.7053 42.7509C65.6413 43.1989 64.9373 43.1349 64.6813 43.0069C64.8733 43.1989 65.7053 43.5829 65.7053 43.9669C65.1293 43.9669 63.9133 44.4149 63.8493 44.4149C63.2733 44.4149 62.6333 43.7749 62.6333 43.1349ZM62.0573 42.2389C61.8013 42.2389 61.8013 42.5589 62.0573 42.5589C62.1853 42.5589 62.1853 42.2389 62.0573 42.2389ZM62.3133 40.9589C62.3133 41.2149 62.6973 41.5349 62.8253 41.6629C62.8253 41.5989 62.8253 41.4709 62.8253 41.4069C62.8253 41.0869 62.5693 40.9589 62.3133 40.9589ZM58.7293 39.7429L59.2413 39.9349V39.7429H58.7293ZM59.7533 39.6149C59.7533 39.8069 60.0093 39.9349 60.2013 39.9349C60.2653 39.9349 60.2653 39.9349 60.2653 39.9349C60.3293 39.9349 60.4573 39.8069 60.4573 39.7429C60.3933 39.6789 60.0733 39.6789 60.0093 39.6149H59.7533ZM57.3213 38.3989C57.1933 38.3989 57.1933 38.6549 57.3213 38.6549C57.5133 38.6549 57.5133 38.3989 57.3213 38.3989ZM58.2813 38.5269C58.2813 38.3989 58.1533 38.3989 58.1533 38.5269C58.1533 38.6549 58.2813 38.6549 58.2813 38.5269ZM57.5133 38.0789C57.3213 38.0789 57.3213 38.3989 57.5133 38.3989C57.7053 38.3989 57.7053 38.0789 57.5133 38.0789ZM58.7293 38.0789C58.7293 37.9509 58.5373 37.9509 58.6013 38.0789C58.6013 38.1429 58.7293 38.1429 58.7293 38.0789ZM57.6413 37.2469C57.6413 37.5669 58.0253 37.8869 58.3453 37.8869C58.3453 37.8869 58.4093 37.8869 58.4733 37.8869C58.3453 37.7589 57.9613 37.2469 57.6413 37.2469ZM56.9373 36.4789C56.4893 37.3749 56.4893 36.6069 56.2973 37.1189H57.2573C57.2573 36.9269 57.0013 36.8629 56.9373 36.8629L57.0653 36.6069L56.9373 36.4789ZM55.1453 36.1589C55.3373 36.3509 55.7213 36.8629 56.0413 36.8629H56.1053C56.1053 36.7989 56.2333 36.6709 56.2973 36.6069C56.1053 36.3509 55.6573 36.1589 55.3373 36.1589C55.2733 36.1589 55.1453 36.1589 55.1453 36.1589ZM55.3373 34.8149C55.1453 34.8149 55.1453 35.0709 55.3373 35.0709C55.4653 35.0709 55.4653 34.8149 55.3373 34.8149ZM52.7773 33.0229C52.7773 33.2789 53.0972 33.3429 53.2893 33.3429C53.2893 33.3429 53.3533 33.3429 53.3533 33.2789C53.3533 33.0229 52.9053 33.0229 52.7773 33.0229ZM53.2893 31.3589C53.8653 32.1269 55.0173 33.2789 55.9773 33.2789C55.9773 32.8949 53.8653 31.3589 53.4173 31.3589C53.4173 31.3589 53.3533 31.3589 53.2893 31.3589ZM52.8413 32.4469C52.7773 32.3829 52.7773 32.6389 52.8413 32.5749C52.9053 32.5109 52.9053 32.5109 52.8413 32.4469ZM41.9613 29.9509C41.7693 29.9509 41.7693 30.2709 41.9613 30.2709C42.0893 30.2709 42.0893 29.9509 41.9613 29.9509ZM48.4893 29.1829C48.2973 29.1829 48.2973 29.4389 48.4893 29.4389C48.6173 29.4389 48.6173 29.1829 48.4893 29.1829ZM41.9613 24.3189C41.9613 24.4469 41.9613 24.8309 41.9613 24.9589C41.9613 25.1509 42.0253 26.1109 41.5773 26.1109C41.5773 25.5989 41.8333 24.9589 41.9613 24.3189ZM61.2253 23.7429C61.0973 23.7429 61.0333 23.7429 60.9693 23.8709H61.2253V23.7429ZM45.4813 23.5509L45.6733 23.7429C45.6733 23.7429 45.6733 23.7429 45.7373 23.7429C45.7373 23.7429 45.8013 23.7429 45.8653 23.7429L45.6733 23.2949L45.4813 23.5509ZM43.1773 15.7429C43.3053 15.8709 43.6892 20.6709 43.8173 21.2469C43.8813 21.6949 44.0733 22.7829 44.1373 22.7829H44.2653V22.1429C44.2653 22.1429 45.1613 22.0149 45.4813 22.0149C45.8013 22.0149 47.3373 21.5029 47.5293 21.3749C47.5933 21.3749 47.7853 21.2469 47.8493 21.2469C49.6413 21.3109 50.6653 21.0549 52.3293 20.7349C56.1053 20.0949 60.5853 20.2229 60.5853 15.3589C60.5853 14.8469 60.5213 13.6309 60.0093 13.3109C60.0093 13.3109 59.7533 13.1829 59.6893 13.1189C59.5613 12.9909 59.7533 12.6709 59.4333 12.6709H59.3693C59.3053 12.6709 59.1133 12.8629 59.0493 12.9909C59.1773 13.0549 59.5613 13.5029 59.6893 13.5669L59.7533 13.6949L59.6893 13.7589C59.2413 13.5669 57.0653 12.2869 57.0653 12.0309H57.1933C57.7053 12.0309 58.3453 12.6709 58.7933 12.6709C58.8573 12.6709 58.9213 12.6709 58.9213 12.6709C58.9853 12.6709 59.0493 12.4149 59.0493 12.3509V12.2869V12.2229C58.4733 12.0949 57.1293 11.2629 56.5533 11.0069H56.6813C57.7053 11.0069 57.9613 11.4549 58.7293 11.7749C58.7293 11.7109 58.7293 11.6469 58.7293 11.6469C58.7293 11.2629 57.5133 10.6229 57.3213 10.4949L57.7053 10.3029C57.5773 9.98294 56.9373 10.1749 56.9373 10.1749C56.1693 9.98294 56.2973 9.21494 55.3373 9.21494C55.2733 9.21494 54.8893 9.40694 54.8893 9.40694C54.5693 9.34294 53.8653 8.95894 53.8653 8.95894V8.76694H53.0972C53.1613 8.76694 53.2893 8.63894 53.2893 8.57494C53.4173 8.57494 53.9293 8.44694 54.0573 8.44694C53.9933 8.19094 50.7933 7.67894 50.1533 7.67894C49.7693 7.67894 49.5133 7.87094 49.1293 7.87094C49.0013 7.87094 48.7453 7.80694 48.7453 7.80694L48.6173 7.55094L48.4893 7.80694L47.4013 8.19094C47.3373 8.12694 47.0813 7.99894 47.0813 7.93494C47.0813 7.93494 47.0173 7.93494 46.9533 7.93494H46.8893C46.8253 7.99894 46.1853 8.19094 46.1213 8.19094H46.0573H45.9933C45.9293 8.19094 45.5453 7.99894 45.4813 7.93494H45.4173C45.0973 7.93494 43.1773 8.76694 43.1773 8.95894V15.7429ZM45.2253 22.2709L45.0333 22.5269H45.2253V22.2709ZM45.6733 22.1429C45.4813 22.1429 45.4813 22.5269 45.6733 22.5269C45.8653 22.5269 45.8653 22.1429 45.6733 22.1429ZM41.4493 15.1029C41.3213 15.1029 41.3213 15.3589 41.4493 15.3589C41.5773 15.3589 41.5773 15.1669 41.4493 15.1029ZM58.9213 11.7749C58.7293 11.7749 58.7293 12.0309 58.9213 12.0309C59.0493 12.0309 59.0493 11.7749 58.9213 11.7749ZM38.6973 9.08694C38.6973 9.08694 38.6973 9.15094 38.6973 9.21494C38.6973 9.53494 38.1213 9.79094 37.8653 9.79094C37.8653 9.40694 38.2493 9.15094 38.6973 9.08694ZM50.0253 7.16694C49.8973 7.16694 48.9373 7.16694 48.9373 7.35894V7.67894C49.4493 7.67894 50.0893 7.42294 50.5373 7.16694C50.4093 7.16694 50.0893 7.16694 50.0253 7.16694ZM52.2013 7.35894V7.55094H52.6493L52.2013 7.35894ZM49.5133 5.05494C49.6413 4.92694 48.8733 4.92694 48.9373 5.05494C49.0013 5.11894 49.5133 5.11894 49.5133 5.05494ZM69.2458 20.4789C69.2458 14.9109 71.3578 9.79094 75.6458 6.14294C76.4138 5.63094 78.2698 4.67094 78.6538 4.15894C81.2778 2.55894 84.8618 1.34294 88.0618 1.34294C88.1898 1.34294 88.7018 1.34294 88.7018 1.34294C89.1498 2.04694 90.1098 1.91894 90.7498 2.11094V2.30294C90.7498 2.30294 91.0698 2.55894 91.0698 2.62294C91.1338 2.62294 90.9418 2.81494 90.9418 2.87894C90.9418 2.94294 90.9418 3.45494 90.9418 3.64693C90.9418 4.22294 91.1338 4.47894 91.1338 4.92694C91.1338 4.99094 91.0698 5.11894 91.0698 5.11894C91.0698 5.11894 90.7498 5.75894 90.7498 5.88694C90.6858 6.39894 91.0058 6.84694 90.4298 6.84694C89.3418 6.84694 88.9578 6.01494 87.8698 6.01494H87.8058C87.6778 6.07894 86.9738 6.33494 86.9097 6.33494C86.5258 6.39894 84.8618 6.39894 84.6058 6.33494C78.2058 8.12694 75.3898 12.2869 73.5338 18.4309C73.5978 19.1989 73.3418 21.0549 73.3418 21.6949C73.3418 25.8549 74.4298 28.3509 78.2058 30.4629C79.0378 30.9749 80.3818 31.5509 81.4698 31.5509C81.7258 31.5509 84.0298 31.1029 84.0938 30.9749C86.3978 29.9509 88.2538 29.0549 88.8938 26.3669C88.9578 26.3669 89.1498 25.1509 89.2138 24.7029C89.4698 23.1029 90.1738 21.8229 90.1738 20.2229C90.1738 18.0469 89.2778 17.0229 88.4458 15.3589C87.2298 13.1189 86.3978 11.2629 86.3978 8.76694C86.3978 8.44694 86.3978 7.55094 86.3978 7.42294L86.5898 7.16694C86.4618 7.67894 86.5258 9.21494 87.1658 9.21494C87.2298 9.21494 87.3578 9.15094 87.3578 9.15094C87.5498 8.51094 87.6778 7.48694 87.6778 6.91094H87.8698C88.8938 6.91094 88.4458 9.27894 89.3418 9.27894C89.4058 9.27894 89.4698 9.27894 89.4698 9.27894C89.5338 9.27894 89.7898 9.15094 89.8538 9.15094C90.3018 9.21494 91.1338 10.0469 92.0298 10.0469C92.0938 10.0469 92.2858 10.0469 92.3498 10.0469L92.6058 9.91894C94.2058 10.2389 93.4378 12.2869 94.0778 12.2869V12.0309H94.2698C94.2698 12.2229 94.2698 12.6709 94.0778 12.7349L94.8458 13.6949C94.9098 13.6949 94.9738 13.6309 94.9738 13.6309C95.0378 13.6309 95.2298 13.5029 95.2938 13.5029C95.2298 13.5669 96.3178 14.8469 96.3818 15.1669C96.3818 15.4229 96.3818 16.3829 96.3818 16.6389C96.8938 16.8949 96.6378 17.4069 97.2778 17.8549C97.4698 17.9829 97.4698 17.9829 97.4698 18.1749C97.4698 18.4949 96.7658 18.4309 96.6378 18.9429C96.6378 19.2629 96.5098 19.9029 96.5098 20.2229C96.5098 21.5029 96.7018 22.8469 96.7018 24.1269C96.7018 25.3429 96.1898 26.4309 96.1898 27.6469C96.1898 28.2229 96.7018 28.4149 96.7018 28.9269C96.7018 29.5029 95.1018 29.5029 94.6538 29.8869C93.9498 30.4629 93.7578 31.1029 92.9898 31.7429C90.1738 33.9829 86.3338 36.0949 82.6858 36.0949C80.9578 36.0949 79.6138 35.1989 78.0138 34.6869C77.9498 34.6229 77.4378 34.6869 77.4378 34.6869C71.6138 32.6389 69.2458 26.1109 69.2458 20.4789ZM91.3898 15.9989L91.0698 16.1269C91.1338 16.1269 91.1978 16.1269 91.2618 16.1269C91.5178 16.1269 91.9658 15.9349 91.7738 15.5509L92.7338 14.5269L91.8378 13.6309C92.0298 14.1429 91.7738 14.0789 91.5178 14.3989C91.3258 14.7189 91.3898 15.7429 91.0698 15.8709L91.3898 15.9989ZM91.8378 13.1829C91.9018 13.0549 91.7098 13.0549 91.7738 13.1829C91.7738 13.3109 91.8378 13.3109 91.8378 13.1829ZM92.3498 12.5429C92.1578 12.5429 92.1578 12.8629 92.3498 12.8629C92.5418 12.8629 92.5418 12.5429 92.3498 12.5429ZM99.5583 20.4789C99.5583 14.9109 101.67 9.79094 105.958 6.14294C106.726 5.63094 108.582 4.67094 108.966 4.15894C111.59 2.55894 115.174 1.34294 118.374 1.34294C118.502 1.34294 119.014 1.34294 119.014 1.34294C119.462 2.04694 120.422 1.91894 121.062 2.11094V2.30294C121.062 2.30294 121.382 2.55894 121.382 2.62294C121.446 2.62294 121.254 2.81494 121.254 2.87894C121.254 2.94294 121.254 3.45494 121.254 3.64693C121.254 4.22294 121.446 4.47894 121.446 4.92694C121.446 4.99094 121.382 5.11894 121.382 5.11894C121.382 5.11894 121.062 5.75894 121.062 5.88694C120.998 6.39894 121.318 6.84694 120.742 6.84694C119.654 6.84694 119.27 6.01494 118.182 6.01494H118.118C117.99 6.07894 117.286 6.33494 117.222 6.33494C116.838 6.39894 115.174 6.39894 114.918 6.33494C108.518 8.12694 105.702 12.2869 103.846 18.4309C103.91 19.1989 103.654 21.0549 103.654 21.6949C103.654 25.8549 104.742 28.3509 108.518 30.4629C109.35 30.9749 110.694 31.5509 111.782 31.5509C112.038 31.5509 114.342 31.1029 114.406 30.9749C116.71 29.9509 118.566 29.0549 119.206 26.3669C119.27 26.3669 119.462 25.1509 119.526 24.7029C119.782 23.1029 120.486 21.8229 120.486 20.2229C120.486 18.0469 119.59 17.0229 118.758 15.3589C117.542 13.1189 116.71 11.2629 116.71 8.76694C116.71 8.44694 116.71 7.55094 116.71 7.42294L116.902 7.16694C116.774 7.67894 116.838 9.21494 117.478 9.21494C117.542 9.21494 117.67 9.15094 117.67 9.15094C117.862 8.51094 117.99 7.48694 117.99 6.91094H118.182C119.206 6.91094 118.758 9.27894 119.654 9.27894C119.718 9.27894 119.782 9.27894 119.782 9.27894C119.846 9.27894 120.102 9.15094 120.166 9.15094C120.614 9.21494 121.446 10.0469 122.342 10.0469C122.406 10.0469 122.598 10.0469 122.662 10.0469L122.918 9.91894C124.518 10.2389 123.75 12.2869 124.39 12.2869V12.0309H124.582C124.582 12.2229 124.582 12.6709 124.39 12.7349L125.158 13.6949C125.222 13.6949 125.286 13.6309 125.286 13.6309C125.35 13.6309 125.542 13.5029 125.606 13.5029C125.542 13.5669 126.63 14.8469 126.694 15.1669C126.694 15.4229 126.694 16.3829 126.694 16.6389C127.206 16.8949 126.95 17.4069 127.59 17.8549C127.782 17.9829 127.782 17.9829 127.782 18.1749C127.782 18.4949 127.078 18.4309 126.95 18.9429C126.95 19.2629 126.822 19.9029 126.822 20.2229C126.822 21.5029 127.014 22.8469 127.014 24.1269C127.014 25.3429 126.502 26.4309 126.502 27.6469C126.502 28.2229 127.014 28.4149 127.014 28.9269C127.014 29.5029 125.414 29.5029 124.966 29.8869C124.262 30.4629 124.07 31.1029 123.302 31.7429C120.486 33.9829 116.646 36.0949 112.998 36.0949C111.27 36.0949 109.926 35.1989 108.326 34.6869C108.262 34.6229 107.75 34.6869 107.75 34.6869C101.926 32.6389 99.5583 26.1109 99.5583 20.4789ZM121.702 15.9989L121.382 16.1269C121.446 16.1269 121.51 16.1269 121.574 16.1269C121.83 16.1269 122.278 15.9349 122.086 15.5509L123.046 14.5269L122.15 13.6309C122.342 14.1429 122.086 14.0789 121.83 14.3989C121.638 14.7189 121.702 15.7429 121.382 15.8709L121.702 15.9989ZM122.15 13.1829C122.214 13.0549 122.022 13.0549 122.086 13.1829C122.086 13.3109 122.15 13.3109 122.15 13.1829ZM122.662 12.5429C122.47 12.5429 122.47 12.8629 122.662 12.8629C122.854 12.8629 122.854 12.5429 122.662 12.5429ZM138.585 33.2149C138.713 32.6389 138.713 32.3189 138.713 31.7429C138.713 31.3589 138.393 30.7829 138.137 30.5269C138.137 30.5909 138.009 30.8469 137.945 30.9109H137.881H137.817C137.241 30.2709 137.561 29.6949 137.497 28.9909C137.433 28.6709 137.177 28.4149 137.177 28.0309H137.561C137.561 28.7349 138.137 29.1829 138.265 29.7589C138.393 29.6949 138.393 29.4389 138.393 29.3749C139.097 29.3749 139.097 29.2469 139.097 28.7989C139.033 28.7989 138.137 29.0549 138.137 28.6709C138.137 28.6069 138.137 28.5429 138.137 28.5429C138.137 28.4789 138.265 28.2229 138.265 28.2229C138.265 28.2229 138.137 28.0949 138.137 28.0309C138.137 28.0309 138.073 27.9669 138.073 27.9029C138.073 27.7749 138.137 27.5829 138.329 27.5829C138.393 27.5829 138.393 27.6469 138.393 27.6469C138.457 27.6469 138.841 27.8389 138.905 27.9029V27.8389V27.7749C138.841 27.7109 138.649 27.3909 138.585 27.2629C138.521 27.0069 139.033 26.6229 139.289 26.6229C139.289 26.7509 139.353 26.8789 139.481 27.0069C139.545 26.8789 139.673 26.6229 139.673 26.4949C139.673 26.4309 139.417 25.9829 139.353 25.8549C139.353 25.8549 139.353 25.6629 139.353 25.5989C139.353 25.3429 139.417 25.0869 139.737 25.0869H139.865L140.697 27.0069H140.889C140.953 27.0069 141.273 26.3669 141.401 26.1749C141.465 26.1109 141.657 25.3429 141.721 25.2789C141.913 24.6389 142.425 24.8949 142.937 24.7669C142.937 24.7669 143.065 24.7029 143.065 24.6389C143.257 24.3829 143.705 23.7429 143.769 23.7429C143.833 23.3589 144.025 22.5269 144.025 22.4629L143.833 22.2709C144.537 22.3349 144.281 21.0549 144.793 20.7349C144.793 20.7349 144.665 20.6709 144.601 20.6069V20.4789C144.601 20.0309 145.113 19.4549 145.113 18.8789C145.113 18.8149 145.113 18.6229 145.113 18.5589L144.793 18.6869C144.793 18.6869 144.793 18.6869 144.793 18.6229C144.793 17.6629 146.521 16.0629 146.521 15.4229L146.329 15.1029C146.329 15.0389 146.841 14.3349 146.841 14.2069V14.0789L146.521 14.3349C148.057 11.0069 149.657 6.97494 151.001 3.77494C151.065 3.64693 151.321 2.87894 151.321 2.81494C151.449 2.62294 153.113 1.40694 153.241 1.40694C153.433 1.40694 153.689 1.40694 153.689 1.66294C153.689 2.43093 152.729 3.58294 152.473 4.28694C151.961 5.05494 151.001 6.97494 151.001 7.03894V7.16694H151.257C151.257 7.23094 150.361 8.44694 150.233 8.95894C149.913 10.4949 149.017 12.1589 148.505 13.6949C148.633 14.5269 148.057 15.1029 147.737 15.7429C147.737 15.8709 147.609 16.4469 147.609 16.5749C146.201 21.1189 144.345 25.4069 143.065 30.0789C143.065 30.1429 142.937 30.4629 142.937 30.5269C142.937 30.8469 142.937 32.1269 142.937 32.4469C142.745 32.6389 142.745 33.0229 142.745 33.2789C142.297 33.2789 142.105 33.5349 141.721 33.5349C141.593 33.5349 141.273 33.3429 141.209 33.3429V33.5349C141.209 33.5989 141.209 33.7909 141.401 33.7909L140.697 34.1749C140.761 34.1749 140.889 34.3669 140.889 34.4309V34.5589C140.889 34.5589 140.697 34.4309 140.633 34.4309C140.569 34.4309 140.313 34.5589 140.249 34.5589C139.673 34.4949 139.609 33.5349 138.585 33.2149ZM141.401 34.1749H141.465V34.3029H141.401V34.1749ZM138.585 33.5349H138.713L138.585 33.7909V33.5349ZM141.721 33.6629C141.849 33.6629 141.849 33.9829 141.721 33.9829C141.465 33.9829 141.465 33.6629 141.721 33.6629ZM139.033 29.6309C138.649 29.6309 138.649 29.9509 138.649 30.2709H139.033V29.6309ZM137.369 29.1829C137.497 29.1829 137.497 29.4389 137.369 29.4389C137.177 29.4389 137.177 29.1829 137.369 29.1829ZM136.985 28.9909C136.985 29.0549 136.857 29.0549 136.857 28.9909C136.857 28.9269 137.049 28.9269 136.985 28.9909ZM136.857 28.5429C136.985 28.5429 136.985 28.8629 136.857 28.8629C136.729 28.8629 136.729 28.5429 136.857 28.5429ZM139.033 28.2869V28.4149C139.033 28.4149 139.161 28.4789 139.161 28.5429H139.225C139.289 28.5429 139.353 28.5429 139.353 28.5429L139.033 28.2229V28.2869ZM136.729 27.9029V27.9669C136.729 28.0309 136.729 28.0309 136.729 28.0309C136.665 28.0949 136.601 28.2229 136.601 28.2229L136.537 28.1589L136.601 28.0309C136.601 28.0309 136.665 27.9029 136.729 27.9029ZM141.401 27.9029C141.209 27.9029 141.209 28.2229 141.401 28.2229C141.465 28.2229 141.465 27.9029 141.401 27.9029ZM136.089 27.1349H136.153C136.409 27.1349 136.409 27.8389 136.409 27.9029H136.217L136.089 27.1349ZM142.169 25.0229C141.913 25.0229 141.913 25.3429 141.849 25.5989C141.721 25.8549 141.465 27.3909 141.401 27.7749C142.041 27.3269 142.169 25.7909 142.169 25.0229ZM136.857 27.3909L136.985 27.6469H136.857V27.3909ZM142.937 25.0869C142.489 25.3429 142.105 26.6229 142.105 27.0709L142.169 27.2629C142.489 26.6229 142.745 25.7909 142.937 25.0869ZM136.345 26.8149C136.857 27.0709 136.985 26.3029 137.369 26.3029C137.369 26.3669 137.369 27.1349 137.113 27.1349C136.985 27.1349 136.409 26.9429 136.345 26.8149ZM135.897 26.6229H136.217C136.153 26.8149 136.089 26.8789 135.897 26.8789V26.6229ZM135.769 26.3669C135.897 26.3669 135.897 26.6229 135.769 26.6229C135.577 26.6229 135.577 26.3669 135.769 26.3669ZM140.121 26.3669C139.929 26.3669 139.929 26.6229 140.121 26.6229C140.249 26.6229 140.249 26.3669 140.121 26.3669ZM135.449 25.7909V25.7269C135.577 25.5989 135.833 25.3429 136.089 25.3429C136.089 25.7909 136.089 25.8549 135.769 25.8549C135.769 26.0469 135.897 26.2389 135.577 26.3669C135.577 26.3029 135.449 25.9829 135.449 25.8549C135.449 25.8549 135.449 25.8549 135.449 25.7909ZM138.009 25.8549H137.945C137.881 25.9189 137.817 26.1749 137.817 26.1749C137.817 26.1749 137.753 26.1749 137.689 26.1749C137.369 26.1749 137.305 25.2789 137.305 25.0869C137.625 25.0869 137.817 24.8309 137.817 24.5749V24.5109C137.689 24.3189 137.177 23.4869 136.985 23.3589C136.857 23.5509 136.793 23.6789 136.729 23.8709C136.729 23.2949 136.089 22.9749 135.577 23.1029V22.7829L136.601 22.2709C136.409 22.5909 136.601 22.9749 136.857 23.1029C136.729 22.4629 136.985 22.5269 136.985 22.0789C136.921 22.0789 136.793 22.2069 136.729 22.1429C136.665 22.0789 136.601 21.8869 136.601 21.8229H136.473C136.409 21.8229 136.345 21.8229 136.345 21.8229C136.345 21.8869 136.217 22.0789 136.217 22.1429C136.153 22.0789 136.089 21.7589 136.089 21.6949V21.5029H136.345C136.345 21.0549 136.409 20.3509 135.897 20.0949V20.9909C135.897 20.9909 135.769 20.9269 135.769 20.8629C135.769 20.8629 135.513 20.6709 135.449 20.6069C135.449 20.6069 135.385 20.5429 135.321 20.5429C134.937 20.5429 135.001 20.9909 134.681 21.2469C134.553 21.1829 134.297 20.8629 134.297 20.7349C134.297 20.6709 134.617 20.4789 134.681 20.4789V20.3509C134.681 19.9669 133.785 20.0949 133.721 20.0949C133.529 19.9029 133.529 19.7109 133.529 19.4549C133.849 19.4549 133.913 19.8389 134.233 19.8389C134.297 19.8389 134.297 19.8389 134.297 19.8389C134.425 19.7749 134.617 19.3909 134.681 19.3269C134.809 19.1989 135.321 19.7749 135.321 19.8389C135.385 19.8389 135.449 19.8389 135.449 19.8389C135.321 19.1989 135.065 19.0709 134.681 18.6869C134.617 18.6869 134.553 18.4309 134.553 18.4309C134.553 17.9829 134.873 17.5989 135.321 17.4709L134.681 15.6149H134.425C134.425 16.7669 134.041 15.7429 134.041 16.6389V16.7029C134.041 16.7029 134.169 16.8309 134.233 16.8949C134.105 17.4069 133.145 16.7669 132.761 17.1509C133.017 16.5749 133.465 16.3829 133.465 15.6789C133.465 15.4229 133.273 14.9749 133.017 14.9749C132.761 14.9749 132.569 15.0389 132.313 15.1029V14.8469C132.313 14.5269 132.761 13.4389 133.081 13.4389C133.145 13.4389 133.401 13.5669 133.465 13.5669C133.593 13.5669 133.593 13.3109 133.593 13.3109C133.593 13.2469 133.529 13.1189 133.529 13.0549L133.465 12.7989C133.465 12.7349 133.529 12.4149 133.529 12.2869H133.465C133.401 12.3509 133.273 12.6069 133.273 12.6709H133.081V12.2869H132.953L132.697 13.3109C132.633 13.2469 132.505 13.1189 132.505 13.0549C132.377 13.0549 132.057 13.1829 132.057 13.1829V13.8869C132.057 13.6949 131.865 12.9909 131.865 12.7989C131.865 12.7989 131.865 12.7349 131.865 12.6709C131.865 12.6069 132.185 12.5429 132.185 12.4789C132.249 12.4789 132.313 12.0309 132.313 12.0309C132.377 11.9029 132.505 11.7109 132.505 11.7109H133.721C133.721 11.3909 133.273 9.21494 132.953 9.02294C132.697 9.66294 132.185 9.21494 132.185 9.98294C132.185 10.4949 132.569 10.4949 132.569 11.0069C132.185 11.0069 131.737 10.4309 131.737 10.1749C131.737 10.1109 131.865 9.85494 131.865 9.79094C131.865 9.72694 131.673 9.21494 131.545 9.02294L131.225 9.72694L131.097 9.02294L131.993 8.57494C132.057 8.63894 132.121 8.70294 132.185 8.76694H132.249C132.505 8.76694 133.081 8.19094 133.081 7.87094C133.081 7.42294 132.505 7.55094 132.313 7.16694C132.697 7.10294 132.697 6.91094 132.697 6.59094C132.697 5.88694 132.441 5.37494 131.737 5.11894C131.737 4.73494 131.865 4.41494 131.865 4.09494C131.865 3.71094 131.801 2.81494 131.289 2.81494C130.969 2.81494 130.905 3.26294 130.905 3.51894C130.905 3.64693 130.905 4.41494 131.161 4.41494C131.225 4.41494 131.225 4.35094 131.225 4.35094C131.289 4.35094 131.481 4.28694 131.545 4.28694V4.35094C131.545 4.86294 131.033 5.31094 131.033 5.82294H130.841C130.841 5.43894 130.457 5.37494 130.457 5.05494H130.777V4.60694L130.649 4.54294C130.585 4.60694 130.393 4.67094 130.329 4.67094C130.457 4.60694 130.457 4.15894 130.457 4.09494C130.457 4.03094 130.009 3.64693 130.009 3.58294C129.945 3.58294 130.009 3.07093 130.009 3.00694C129.817 2.43093 129.177 2.04694 129.177 1.34294C129.177 0.318935 130.265 -0.0010643 131.097 -0.0010643C132.057 -0.0010643 132.249 1.08694 132.697 1.85493C132.697 1.98294 132.761 2.30294 132.761 2.36694V2.43093V2.55894C132.761 2.55894 132.633 2.81494 132.697 2.81494C132.697 2.87894 133.081 3.26294 133.081 3.32693C133.721 4.09494 133.017 6.14294 134.233 6.27094C134.041 6.33494 134.041 6.52694 134.041 6.65494C134.041 7.29494 133.977 7.87094 134.553 8.19094L134.681 8.25494C134.681 8.31894 134.553 8.57494 134.553 8.57494C134.553 8.70294 134.553 9.40694 134.553 9.53494H135.001V9.98294C134.745 9.98294 134.745 10.1109 134.745 10.3029H135.129C135.129 10.3029 135.321 11.0069 135.449 11.2629C135.449 11.2629 135.449 11.2629 135.449 11.3269V11.3909C135.449 11.4549 135.321 11.6469 135.321 11.7109C135.769 11.6469 135.961 13.3749 136.089 13.6949C136.281 14.3349 137.241 17.1509 137.497 17.7909V18.5589C136.985 18.4309 136.985 19.4549 136.985 19.4549C136.985 19.5189 137.177 19.7749 137.177 19.8389C137.177 19.8389 137.113 20.0309 137.113 20.0949H137.625C137.625 19.6469 137.305 19.3909 137.305 18.8149C137.817 18.8149 138.905 22.2709 138.905 22.8469V22.9109C138.841 22.9749 138.777 23.0389 138.713 23.1029C139.289 23.2949 139.481 23.8709 139.481 24.5109C139.481 24.8949 138.713 24.8309 138.713 25.3429C138.713 25.7269 138.841 25.9829 139.033 26.3669H138.841C138.393 26.3669 138.393 25.8549 138.009 25.8549ZM136.729 25.5989C136.857 25.5989 136.857 25.8549 136.729 25.8549C136.601 25.8549 136.601 25.5989 136.729 25.5989ZM135.449 25.0869C135.385 25.1509 135.321 25.1509 135.321 25.0869C135.321 25.0229 135.513 25.0229 135.449 25.0869ZM138.265 24.9589C138.137 24.9589 138.137 25.2789 138.265 25.2789C138.393 25.2789 138.393 24.9589 138.265 24.9589ZM135.769 24.1269C135.769 23.9989 135.769 23.6149 136.089 23.7429V24.9589C135.769 24.7029 135.769 24.5109 135.769 24.1269ZM138.137 23.8709V24.9589C138.009 24.3189 139.033 24.9589 139.033 24.3189C139.033 24.1269 139.033 24.0629 138.905 23.8709L138.585 23.9989L138.393 23.7429L138.137 23.8709ZM137.177 24.6389C137.241 24.6389 137.241 24.7669 137.177 24.7669C137.113 24.8309 137.113 24.5749 137.177 24.6389ZM136.985 24.1269C137.113 24.1909 137.113 24.4469 136.985 24.5109C136.921 24.5749 136.921 24.1269 136.985 24.1269ZM135.001 23.9989C135.129 23.9989 135.129 24.3189 135.001 24.3189C134.809 24.3189 134.809 23.9989 135.001 23.9989ZM135.577 23.5509H135.769C135.513 23.7429 135.321 23.7429 135.065 23.7429C135.065 23.7429 134.873 23.7429 134.809 23.7429C135.129 23.5509 135.257 23.5509 135.577 23.5509ZM134.681 23.2309L134.809 23.3589H134.681V23.2309ZM135.001 22.5909L135.129 22.9109H134.809L135.001 22.5909ZM137.945 22.4629C138.009 22.6549 138.137 22.6549 138.265 22.6549C138.393 22.6549 138.521 22.6549 138.585 22.4629C138.521 22.2709 138.393 22.2709 138.265 22.2709C138.137 22.2709 138.009 22.2709 137.945 22.4629ZM137.625 21.6949C137.625 21.7589 137.817 22.0789 137.817 22.1429C137.817 22.2069 137.817 22.2709 137.817 22.2709C137.817 22.2709 137.945 22.2069 137.945 22.1429V22.0789V22.0149C137.945 21.8869 137.817 21.5669 137.817 21.5029C137.753 21.5029 137.625 21.6309 137.625 21.6949ZM134.041 21.1189C134.425 21.1189 134.425 21.8869 134.425 22.0789C134.041 22.0789 134.041 21.4389 134.041 21.1189ZM137.625 20.7349V21.2469L137.817 21.0549V20.9909V20.8629L137.625 20.7349ZM135.449 21.0549C135.385 21.1189 135.321 21.1189 135.321 21.0549C135.321 20.9909 135.513 20.9909 135.449 21.0549ZM144.153 20.7349C144.345 20.7349 144.345 21.0549 144.153 21.0549C144.025 21.0549 144.025 20.7349 144.153 20.7349ZM137.177 20.2229C136.985 20.2229 136.985 20.6069 137.177 20.6069C137.369 20.6069 137.369 20.2229 137.177 20.2229ZM135.129 20.0949C135.065 20.0949 135.065 20.2869 135.129 20.2229C135.257 20.2229 135.257 20.1589 135.129 20.0949ZM135.769 19.6469V19.8389H135.897L135.769 19.6469ZM135.577 19.1989V19.3269H135.769L135.577 19.1989ZM133.465 18.5589C133.529 18.6869 133.529 19.0709 133.465 19.1989C133.273 19.2629 133.273 18.4309 133.465 18.5589ZM133.913 18.5589H134.105C134.105 18.6869 134.105 18.9429 133.913 19.0069V18.5589ZM144.601 18.8789C144.793 18.8789 144.793 19.1989 144.601 19.1989C144.537 19.1989 144.537 18.8789 144.601 18.8789ZM135.321 18.1109V18.6229C135.385 18.6229 135.577 18.5589 135.577 18.4309C135.577 18.3669 135.513 18.1749 135.449 18.1109C135.449 18.1109 135.385 18.1109 135.321 18.1109ZM133.081 17.9189H133.273V18.2389C133.145 18.1749 133.081 18.0469 133.081 17.9189ZM134.297 17.4069V17.4709C134.425 17.5349 134.553 17.9189 134.553 17.9189C134.553 17.9829 134.425 18.0469 134.297 18.1109C134.297 18.1749 133.977 18.1749 133.913 18.2389C133.913 18.1749 133.849 17.9829 133.849 17.9189C133.849 17.6629 133.913 17.4069 134.297 17.4069ZM135.321 17.7909C135.321 17.6629 135.129 17.6629 135.129 17.7909C135.129 17.9189 135.321 17.9189 135.321 17.7909ZM136.217 15.8709C136.217 15.9349 136.217 16.0629 136.217 16.1269C136.281 16.2549 136.345 16.7029 136.345 16.7029H136.729C136.729 16.6389 136.729 16.5749 136.729 16.5749C136.601 16.3829 136.409 15.7429 136.345 15.6149C136.217 15.6789 136.217 15.7429 136.217 15.8709ZM133.529 16.1909C133.465 16.1909 133.465 16.5749 133.529 16.5749C133.721 16.5749 133.721 16.1909 133.529 16.1909ZM134.041 15.1029C133.785 15.1669 133.849 15.7429 133.849 15.8069C134.105 15.8069 134.105 15.6789 134.233 15.4229C134.297 15.3589 134.489 14.4629 134.553 14.2069V14.0789C134.553 13.8869 134.105 13.6949 134.041 13.4389L133.913 13.5669C133.913 13.6949 133.913 14.3349 133.913 14.5269C133.913 14.5269 133.721 14.0789 133.529 14.0789C133.529 14.0789 133.209 14.1429 133.081 14.2069C133.273 14.7189 133.785 14.7189 134.041 15.1029ZM132.697 14.3349C132.505 14.3349 132.505 14.6549 132.697 14.6549C132.761 14.6549 132.761 14.3349 132.697 14.3349ZM133.465 14.2069C133.529 14.2069 133.529 14.5269 133.465 14.5269C133.273 14.5269 133.273 14.2069 133.465 14.2069ZM135.321 12.9269L135.449 13.0549V12.9269H135.321ZM133.913 12.4789C133.721 12.4789 133.721 12.7989 133.913 12.7989C134.041 12.7989 134.041 12.4789 133.913 12.4789ZM131.481 11.2629H131.993C131.865 11.4549 131.993 11.9029 131.737 12.0309C131.609 11.7749 131.481 11.5189 131.481 11.2629ZM133.273 12.0309C133.273 11.9029 133.081 11.9029 133.081 12.0309C133.081 12.0949 133.273 12.0949 133.273 12.0309ZM134.681 10.8149C134.681 10.8789 134.681 10.9429 134.681 10.9429C134.745 11.0069 134.937 11.0069 135.001 11.0709C135.001 11.0069 135.001 11.0069 135.001 11.0069V10.9429C134.937 10.8789 134.873 10.6869 134.809 10.6229L134.681 10.7509V10.8149ZM132.633 9.98294C132.825 9.98294 132.889 10.1109 132.953 10.3029H132.889C132.697 10.3029 132.633 10.1109 132.633 9.98294ZM150.553 9.72694H150.681C150.681 9.79094 150.425 10.1749 150.233 10.3029L150.553 9.72694ZM131.993 8.19094H131.737C131.673 7.99894 132.057 7.99894 131.993 8.19094ZM131.097 7.03894L131.417 5.82294C131.545 6.27094 131.673 6.20694 132.057 6.20694C132.057 6.01494 131.929 5.88694 132.185 5.82294C132.313 5.95094 132.313 6.14294 132.313 6.33494C132.313 6.52694 132.313 6.71894 132.185 6.91094C132.057 6.65494 131.993 6.78294 131.737 6.78294C131.737 7.16694 131.865 7.16694 131.865 7.42294V7.48694C131.865 7.55094 131.673 7.93494 131.545 7.93494C131.481 7.67894 131.353 7.23094 131.097 7.03894ZM130.969 7.48694C130.969 7.48694 130.969 7.48694 131.033 7.48694H131.097C131.161 7.55094 131.225 7.74294 131.225 7.80694H130.969V7.48694ZM130.649 6.39894C130.649 6.39894 130.713 6.27094 130.777 6.27094C130.969 6.46294 130.969 6.71894 130.969 6.91094C130.713 6.91094 130.649 6.59094 130.649 6.39894ZM133.081 5.88694L133.273 6.14294V5.88694H133.081ZM151.769 5.82294C151.961 5.82294 151.961 5.88694 151.769 5.88694C151.705 5.95094 151.705 5.75894 151.769 5.82294ZM134.041 5.63094C134.233 5.63094 134.233 5.88694 134.041 5.88694C133.913 5.88694 133.913 5.63094 134.041 5.63094ZM131.865 5.50294C131.993 5.50294 131.993 5.82294 131.865 5.82294C131.737 5.82294 131.737 5.50294 131.865 5.50294ZM133.913 4.67094C133.977 4.67094 133.977 4.86294 133.913 4.86294C133.785 4.86294 133.785 4.67094 133.913 4.67094ZM131.225 3.45494H131.609C131.609 3.58294 131.609 3.83894 131.417 3.90294C131.353 3.83894 131.225 3.64693 131.225 3.58294V3.45494ZM133.465 3.13494C133.529 3.13494 133.529 3.45494 133.465 3.45494C133.273 3.45494 133.273 3.13494 133.465 3.13494ZM151.705 2.23894C151.769 2.23894 151.769 2.55894 151.705 2.55894C151.513 2.55894 151.513 2.23894 151.705 2.23894ZM155.631 29.8229C155.631 29.6949 155.631 29.1829 155.631 29.1829C155.695 28.3509 155.887 24.5749 155.951 23.7429C155.951 23.6149 156.079 23.2949 156.079 23.2309C156.079 22.7829 155.759 22.2069 155.759 21.6949C155.759 21.5669 155.887 21.2469 155.951 21.2469C155.951 20.4789 156.079 16.9589 156.079 16.1909C156.079 15.8709 156.079 13.3109 156.079 12.9269C156.143 12.2869 156.207 10.4949 156.207 10.4949L156.399 10.3029C156.399 9.98294 156.527 8.31894 156.591 7.93494C156.655 7.16694 157.231 6.14294 158.191 6.14294C158.255 6.14294 158.447 6.14294 158.447 6.14294C158.447 6.14294 158.703 6.27094 158.767 6.27094C158.767 6.27094 158.831 6.14294 158.895 6.14294C158.895 6.14294 158.959 6.14294 159.023 6.14294C159.535 6.14294 159.023 6.91094 160.495 7.03894C163.247 7.23094 165.999 7.16694 168.815 7.16694C170.543 7.16694 172.207 7.03894 173.935 7.03894C174.255 7.03894 175.855 7.03894 176.175 7.03894C176.175 7.10294 176.303 7.16694 176.367 7.16694H176.431H176.495C176.495 7.16694 176.687 7.10294 176.687 7.03894C176.751 7.03894 177.391 7.03894 177.455 7.03894C179.503 7.03894 179.631 7.16694 179.951 8.95894C179.951 8.95894 180.079 9.34294 180.079 9.40694C180.015 9.47094 179.759 9.79094 179.631 9.79094L180.079 10.7509C179.695 11.1989 179.055 10.6869 178.735 11.0709C178.223 11.0069 176.047 11.0069 175.599 11.0709C175.407 11.0709 174.895 11.2629 174.831 11.2629C174.127 11.2629 171.055 11.0709 170.415 11.0709C169.519 11.0069 168.495 10.8149 167.663 10.9429L167.919 10.7509L167.663 10.6229C167.215 10.6229 165.615 10.4949 165.295 10.4949C165.231 10.4949 164.847 10.3029 164.783 10.3029L164.655 10.4949C164.655 10.4949 164.463 10.4949 164.399 10.4949C164.207 10.4949 164.079 10.4949 163.887 10.3029C163.375 10.2389 161.071 9.91894 160.623 9.79094C160.559 9.79094 160.367 9.79094 160.303 9.79094C160.175 9.79094 159.855 9.79094 159.855 9.98294C159.855 10.1109 159.855 10.7509 159.855 10.8149C159.855 13.3749 159.983 16.0629 160.111 18.5589C160.175 19.0069 160.559 19.1989 160.623 19.6469C165.167 19.5829 169.263 19.7109 173.679 19.9669C173.743 20.2229 174.639 20.2869 174.895 20.2869V20.2229C175.023 20.2229 175.087 20.0309 175.087 19.9669C175.215 20.0309 175.727 20.0949 175.855 20.0949C175.919 20.0949 176.175 19.9669 176.175 19.9669H176.303C177.711 19.9669 178.735 20.4149 178.479 22.0149C178.479 22.0149 178.415 22.0789 178.351 22.1429C178.287 22.2069 177.967 22.3989 177.903 22.4629V22.5269C177.903 22.7829 178.095 22.9749 178.095 23.2309C178.095 24.7669 174.447 23.5509 174.127 24.5109C173.871 24.5109 172.527 24.5109 172.207 24.5109C169.711 24.5109 167.343 23.9989 164.847 23.9989C164.719 23.9989 164.399 23.9989 164.399 23.9989C163.887 24.0629 161.583 24.1269 161.071 24.1269C160.687 24.1269 160.623 24.7669 160.623 24.9589C160.559 25.0869 160.559 25.8549 160.623 26.0469C160.367 26.1109 160.303 27.0709 160.303 27.2629C160.303 27.3909 160.495 27.8389 160.495 27.9029L160.303 28.0309C160.303 28.0949 160.303 28.3509 160.303 28.4149H160.111C160.047 28.4149 159.983 28.8629 159.983 28.9909C159.983 29.0549 160.111 29.4389 160.111 29.4389C160.175 29.6949 160.047 30.9109 160.047 31.1029C164.335 31.1029 168.495 30.7189 172.783 30.7189V30.9749C173.103 30.9749 173.039 31.2309 173.039 31.5509C173.551 31.5509 173.807 31.8069 174.127 31.4869C175.151 30.7189 175.407 30.7189 176.879 30.7189C177.455 30.7189 178.095 30.6549 178.095 31.4229C178.095 32.1269 177.583 32.5749 177.583 33.2789C177.583 33.7909 178.223 33.5349 178.223 34.0469C178.223 34.4949 176.559 34.4309 176.495 34.4309L176.815 34.5589C176.751 34.5589 176.431 34.6229 176.367 34.6229C175.663 34.6229 175.407 34.1749 174.831 33.9829C174.639 33.9829 174.127 34.0469 173.999 34.0469V34.1749C174.191 34.1749 174.191 34.0469 174.319 34.3029C174.191 34.3029 173.551 34.3669 173.359 34.4309C173.359 34.4949 173.231 34.5589 173.231 34.5589H171.311L171.055 34.8149C170.799 34.7509 169.711 34.5589 169.519 34.5589C169.327 34.5589 168.239 34.8149 168.047 34.8149C168.047 34.8149 167.471 34.8149 167.279 34.8149C166.447 34.8149 165.743 34.6869 164.975 34.4309H160.879C160.431 34.4309 159.919 34.9429 159.855 35.3909C159.791 35.3909 159.471 35.3909 159.343 35.3909C156.591 35.3909 155.631 32.0629 155.631 29.8229ZM177.263 33.7909C177.135 33.7909 177.135 34.1749 177.263 34.1749C177.455 34.1749 177.455 33.7909 177.263 33.7909ZM173.103 32.4469C173.103 32.8949 173.551 33.5349 173.999 33.5349C174.063 33.5349 174.639 33.4709 174.319 33.2149L173.551 32.4469H173.103ZM159.983 30.7189C159.855 30.7189 159.855 31.0389 159.983 31.0389C160.111 31.0389 160.111 30.7189 159.983 30.7189ZM158.447 25.0869C158.255 25.0869 158.255 25.4069 158.447 25.4069C158.575 25.4069 158.575 25.0869 158.447 25.0869ZM158.767 25.0869C158.575 25.0869 158.575 25.4069 158.767 25.4069C158.895 25.4069 158.895 25.0869 158.767 25.0869ZM158.255 6.14294C158.127 6.14294 158.127 6.39894 158.255 6.39894C158.447 6.39894 158.447 6.14294 158.255 6.14294Z" fill="#F3EFEE"/>
</svg>
