<svg width="45" height="44" viewBox="0 0 45 44" fill="none" xmlns="http://www.w3.org/2000/svg">
<path fill-rule="evenodd" clip-rule="evenodd" d="M36.5991 35.5523C34.6941 29.6618 29.5753 26.2866 22.5497 26.2866H22.4991C15.4547 26.2481 10.3097 29.6471 8.40094 35.5523L8.17969 36.2379L8.80594 36.6119C12.4772 38.8009 17.0559 39.9101 22.4109 39.9101C22.4709 39.9101 22.5309 39.9101 22.5891 39.9101C28.0191 39.9101 32.4703 38.8303 36.1941 36.6119L36.8203 36.2379L36.5991 35.5523Z" fill="#F3EFEE"/>
<path fill-rule="evenodd" clip-rule="evenodd" d="M22.5 22.2016C27.6057 22.2016 31.7607 18.1408 31.7607 13.1486C31.7607 8.15458 27.6057 4.09375 22.5 4.09375C17.3944 4.09375 13.2413 8.15458 13.2413 13.1486C13.2413 18.1408 17.3944 22.2016 22.5 22.2016Z" fill="#F3EFEE"/>
</svg>
