<svg width="35" height="35" viewBox="0 0 35 35" fill="none" xmlns="http://www.w3.org/2000/svg">
<path fill-rule="evenodd" clip-rule="evenodd" d="M16.0432 5.10547C10.1729 5.10547 5.41406 9.86429 5.41406 15.7346C5.41406 21.6049 10.1729 26.3637 16.0432 26.3637C21.9135 26.3637 26.6723 21.6049 26.6723 15.7346C26.6723 9.86429 21.9135 5.10547 16.0432 5.10547ZM3.22656 15.7346C3.22656 8.65616 8.96476 2.91797 16.0432 2.91797C23.1216 2.91797 28.8598 8.65616 28.8598 15.7346C28.8598 22.813 23.1216 28.5512 16.0432 28.5512C8.96476 28.5512 3.22656 22.813 3.22656 15.7346Z" fill="#8A8A8A"/>
<path fill-rule="evenodd" clip-rule="evenodd" d="M24.0448 22.8203L32.2341 30.9883L30.6893 32.5371L22.5 24.3691L24.0448 22.8203Z" fill="#8A8A8A"/>
</svg>
