<svg width="24" height="24" viewBox="0 0 24 24" fill="none" xmlns="http://www.w3.org/2000/svg">
<path fill-rule="evenodd" clip-rule="evenodd" d="M17.5811 5.25C19.6073 5.25004 20.7636 7.56361 19.5479 9.18457C19.0293 9.87626 18.7491 10.7175 18.7491 11.582V18C18.7491 20.6233 16.6223 22.7498 13.9991 22.75H9.99908C7.37578 22.7499 5.24908 20.6233 5.24908 18V11.582C5.24903 10.7174 4.96802 9.87631 4.44928 9.18457C3.23373 7.56375 4.39023 5.25042 6.41607 5.25H17.5811ZM9.99908 10.25C9.58487 10.25 9.24908 10.5858 9.24908 11L9.24811 17C9.24811 17.4141 9.58412 17.7497 9.99811 17.75C10.4123 17.75 10.7481 17.4142 10.7481 17L10.7491 11C10.7491 10.5859 10.4131 10.2503 9.99908 10.25ZM13.9991 10.25C13.5849 10.25 13.2491 10.5858 13.2491 11L13.2481 17C13.2481 17.4141 13.5841 17.7497 13.9981 17.75C14.4123 17.75 14.7481 17.4142 14.7481 17L14.7491 11C14.7491 10.5859 14.4131 10.2503 13.9991 10.25Z" fill="white"/>
<path d="M16 6L15.4558 4.36754C15.1836 3.55086 14.4193 3 13.5585 3H10.4415C9.58066 3 8.81638 3.55086 8.54415 4.36754L8 6" stroke="white" stroke-width="1.5" stroke-linecap="round"/>
</svg>
